<svg width="50" height="50" viewBox="0 0 50 50" fill="none" xmlns="http://www.w3.org/2000/svg">
<path d="M41.7584 26.5635C41.8444 34.1299 49.911 36.6481 50 36.6803C49.9318 36.8574 48.7114 40.2687 45.7507 43.7915C43.1913 46.8373 40.5346 49.8719 36.3505 49.9355C32.2391 49.9967 30.9169 47.9497 26.2159 47.9497C21.5163 47.9497 20.0478 49.8719 16.1553 49.9967C12.1161 50.1214 9.04022 46.7025 6.4596 43.6683C1.18665 37.4607 -2.8432 26.1269 2.56766 18.4764C5.25554 14.6771 10.0599 12.2716 15.274 12.2096C19.2401 12.148 22.9838 14.3821 25.4082 14.3821C27.8312 14.3821 32.3805 11.6952 37.1631 12.0897C39.1654 12.1577 44.7854 12.7481 48.3941 17.0496C48.104 17.1965 41.6887 20.2376 41.7584 26.5635ZM34.0314 7.98331C36.1756 5.86996 37.6188 2.92713 37.2254 0C34.1342 0.101019 30.3965 1.67707 28.1796 3.78962C26.1926 5.65987 24.4528 8.65422 24.9218 11.5234C28.3675 11.7407 31.8867 10.0979 34.0314 7.98331Z" fill="black"/>
</svg>
