<svg width="44" height="44" viewBox="0 0 44 44" fill="none" xmlns="http://www.w3.org/2000/svg">
<path d="M7.33317 7.33317H12.8332L16.4998 3.6665H27.4998L31.1665 7.33317H36.6665C37.639 7.33317 38.5716 7.71948 39.2592 8.40711C39.9469 9.09475 40.3332 10.0274 40.3332 10.9998V32.9998C40.3332 33.9723 39.9469 34.9049 39.2592 35.5926C38.5716 36.2802 37.639 36.6665 36.6665 36.6665H7.33317C6.36071 36.6665 5.42808 36.2802 4.74045 35.5926C4.05281 34.9049 3.6665 33.9723 3.6665 32.9998V10.9998C3.6665 10.0274 4.05281 9.09475 4.74045 8.40711C5.42808 7.71948 6.36071 7.33317 7.33317 7.33317ZM21.9998 12.8332C19.5687 12.8332 17.2371 13.7989 15.518 15.518C13.7989 17.2371 12.8332 19.5687 12.8332 21.9998C12.8332 24.431 13.7989 26.7626 15.518 28.4816C17.2371 30.2007 19.5687 31.1665 21.9998 31.1665C24.431 31.1665 26.7626 30.2007 28.4816 28.4816C30.2007 26.7626 31.1665 24.431 31.1665 21.9998C31.1665 19.5687 30.2007 17.2371 28.4816 15.518C26.7626 13.7989 24.431 12.8332 21.9998 12.8332ZM21.9998 16.4998C23.4585 16.4998 24.8575 17.0793 25.8889 18.1107C26.9204 19.1422 27.4998 20.5411 27.4998 21.9998C27.4998 23.4585 26.9204 24.8575 25.8889 25.8889C24.8575 26.9204 23.4585 27.4998 21.9998 27.4998C20.5411 27.4998 19.1422 26.9204 18.1107 25.8889C17.0793 24.8575 16.4998 23.4585 16.4998 21.9998C16.4998 20.5411 17.0793 19.1422 18.1107 18.1107C19.1422 17.0793 20.5411 16.4998 21.9998 16.4998Z" fill="#61B061"/>
</svg>
