<svg width="44" height="44" viewBox="0 0 44 44" fill="none" xmlns="http://www.w3.org/2000/svg">
<path fill-rule="evenodd" clip-rule="evenodd" d="M15.3011 30.0999L12.3883 30.1472L11.5116 32.9268L11.1066 34.2109L5.93563 34.2949L5.80531 26.265C7.14748 26.5909 9.08392 26.8317 11.8782 26.7863C12.4142 26.7776 12.9248 26.5564 13.2976 26.1712C13.6705 25.7861 13.8751 25.2686 13.8664 24.7326C13.8577 24.1966 13.6364 23.686 13.2513 23.3132C12.8661 22.9403 12.3486 22.7357 11.8126 22.7444C8.92132 22.7913 7.27506 22.4946 6.41933 22.2471C6.23164 22.1927 6.04704 22.1283 5.86635 22.0539C6.05837 21.1617 6.49815 20.3418 7.13518 19.6884C7.32958 19.4876 7.51847 19.2797 7.70186 19.0647C11.8301 20.1647 16.8996 20.6404 21.8846 20.5595C26.8696 20.4786 31.921 19.8387 36.0113 18.6052C36.1998 18.816 36.3954 19.0177 36.5979 19.2102C37.2579 19.8518 37.7211 20.6583 37.9429 21.5333C37.8252 21.5927 37.6431 21.6631 37.3965 21.7443C36.5492 22.0195 34.9134 22.3695 32.0221 22.4164C31.4861 22.4251 30.9756 22.6464 30.6027 23.0316C30.2299 23.4167 30.0253 23.9342 30.034 24.4702C30.0427 25.0062 30.2639 25.5168 30.6491 25.8896C31.0342 26.2625 31.5517 26.467 32.0877 26.4583C34.882 26.413 36.8096 26.1095 38.1405 25.7402L38.2708 33.7701L33.0999 33.854L32.6534 32.5837L31.687 29.834L15.3011 30.0999ZM33.7193 15.0523C30.2837 15.9436 26.0872 16.4483 21.819 16.5176C17.5507 16.5868 13.3401 16.2185 9.87743 15.4392C9.9568 15.2367 10.0326 15.0324 10.1047 14.8264L11.2569 11.4197C11.7198 10.051 12.7576 9.22289 13.806 9.05224C19.0266 8.22344 24.3381 8.13724 29.5829 8.7962C30.6416 8.93265 31.7003 9.72676 32.2074 11.0797L33.4749 14.4471C33.5501 14.6507 33.6316 14.8524 33.7193 15.0523ZM29.6084 36.1101L28.8397 33.9232L15.3667 34.1418L14.6695 36.3525C14.4994 36.8922 14.1638 37.3646 13.7102 37.7029C13.2566 38.0412 12.708 38.2281 12.1422 38.2371L4.65393 38.3586C3.93927 38.3702 3.24928 38.0975 2.73575 37.6003C2.22221 37.1032 1.92719 36.4224 1.91559 35.7078L1.71334 23.2452C1.67486 20.874 2.58102 18.5817 4.22986 16.8785C4.65709 16.4384 5.03764 15.9553 5.36545 15.4369L3.60857 15.4655C3.07258 15.4742 2.55509 15.2696 2.16993 14.8967C1.78478 14.5239 1.56352 14.0133 1.55482 13.4773C1.54612 12.9413 1.7507 12.4238 2.12355 12.0387C2.4964 11.6535 3.00698 11.4323 3.54297 11.4236L7.00823 11.3673L7.43003 10.1206C8.3123 7.51882 10.4493 5.50039 13.1617 5.06285C18.7665 4.17192 24.4692 4.07937 30.1 4.78796C32.8252 5.13725 35.0266 7.08528 35.9928 9.65979L36.4548 10.8894L39.9201 10.8332C40.4561 10.8245 40.9736 11.0291 41.3587 11.4019C41.7439 11.7748 41.9651 12.2854 41.9738 12.8214C41.9825 13.3573 41.778 13.8748 41.4051 14.26C41.0322 14.6451 40.5217 14.8664 39.9857 14.8751L38.2315 14.9036C38.5758 15.4119 38.9688 15.8799 39.4106 16.3076C41.1147 17.9578 42.0937 20.2173 42.1324 22.5893L42.3346 35.0518C42.3462 35.7665 42.0734 36.4565 41.5763 36.97C41.0792 37.4835 40.3984 37.7785 39.6837 37.7901L32.1927 37.9117C31.6274 37.9205 31.0737 37.7512 30.6099 37.4279C30.1461 37.1045 29.7957 36.6435 29.6084 36.1101Z" fill="#ED1C25"/>
</svg>
