<svg width="57" height="57" viewBox="0 0 57 57" fill="none" xmlns="http://www.w3.org/2000/svg">
<path d="M4.75 52.25V9.5C4.75 8.19375 5.2155 7.07592 6.1465 6.1465C7.0775 5.21708 8.19533 4.75158 9.5 4.75H47.5C48.8063 4.75 49.9249 5.2155 50.8559 6.1465C51.7869 7.0775 52.2516 8.19533 52.25 9.5V38C52.25 39.3063 51.7853 40.4249 50.8559 41.3559C49.9265 42.2869 48.8078 42.7516 47.5 42.75H14.25L4.75 52.25ZM14.25 33.25H33.25V28.5H14.25V33.25ZM14.25 26.125H42.75V21.375H14.25V26.125ZM14.25 19H42.75V14.25H14.25V19Z" fill="#3E473D"/>
</svg>
