<svg width="38" height="38" viewBox="0 0 38 38" fill="none" xmlns="http://www.w3.org/2000/svg">
<path d="M31.6667 7.9165C32.0866 7.9165 32.4893 8.08332 32.7863 8.38025C33.0832 8.67718 33.25 9.07991 33.25 9.49984C33.25 9.91976 33.0832 10.3225 32.7863 10.6194C32.4893 10.9164 32.0866 11.0832 31.6667 11.0832H30.0833L30.0786 11.1956L28.6013 31.8913C28.5445 32.6903 28.187 33.438 27.6009 33.9838C27.0147 34.5297 26.2435 34.8332 25.4426 34.8332H12.5558C11.7549 34.8332 10.9837 34.5297 10.3976 33.9838C9.81145 33.438 9.45395 32.6903 9.39708 31.8913L7.91983 11.1972L7.91667 11.0832H6.33333C5.91341 11.0832 5.51068 10.9164 5.21375 10.6194C4.91681 10.3225 4.75 9.91976 4.75 9.49984C4.75 9.07991 4.91681 8.67718 5.21375 8.38025C5.51068 8.08332 5.91341 7.9165 6.33333 7.9165H31.6667ZM22.1667 3.1665C22.5866 3.1665 22.9893 3.33332 23.2863 3.63025C23.5832 3.92718 23.75 4.32991 23.75 4.74984C23.75 5.16976 23.5832 5.57249 23.2863 5.86942C22.9893 6.16636 22.5866 6.33317 22.1667 6.33317H15.8333C15.4134 6.33317 15.0107 6.16636 14.7137 5.86942C14.4168 5.57249 14.25 5.16976 14.25 4.74984C14.25 4.32991 14.4168 3.92718 14.7137 3.63025C15.0107 3.33332 15.4134 3.1665 15.8333 3.1665H22.1667Z" fill="#D64242"/>
</svg>
