<svg width="58" height="58" viewBox="0 0 58 58" fill="none" xmlns="http://www.w3.org/2000/svg">
<path d="M48.3335 9.66675H9.66683C7.0085 9.66675 4.85766 11.8417 4.85766 14.5001L4.8335 43.5001C4.8335 46.1584 7.0085 48.3334 9.66683 48.3334H48.3335C50.9918 48.3334 53.1668 46.1584 53.1668 43.5001V14.5001C53.1668 11.8417 50.9918 9.66675 48.3335 9.66675ZM47.3668 19.9376L30.281 30.6192C29.5077 31.1026 28.4927 31.1026 27.7193 30.6192L10.6335 19.9376C10.3912 19.8015 10.179 19.6178 10.0097 19.3973C9.84049 19.1769 9.71773 18.9245 9.64889 18.6552C9.58004 18.386 9.56654 18.1056 9.60921 17.831C9.65187 17.5564 9.74981 17.2933 9.89709 17.0576C10.0444 16.822 10.2379 16.6187 10.4661 16.46C10.6942 16.3013 10.9522 16.1906 11.2244 16.1345C11.4965 16.0784 11.7773 16.0781 12.0496 16.1336C12.3218 16.1892 12.58 16.2994 12.8085 16.4576L29.0002 26.5834L45.1918 16.4576C45.4203 16.2994 45.6785 16.1892 45.9508 16.1336C46.2231 16.0781 46.5038 16.0784 46.776 16.1345C47.0481 16.1906 47.3061 16.3013 47.5342 16.46C47.7624 16.6187 47.9559 16.822 48.1032 17.0576C48.2505 17.2933 48.3485 17.5564 48.3911 17.831C48.4338 18.1056 48.4203 18.386 48.3514 18.6552C48.2826 18.9245 48.1598 19.1769 47.9906 19.3973C47.8214 19.6178 47.6092 19.8015 47.3668 19.9376Z" fill="#F0EDED"/>
</svg>
