<svg width="50" height="50" viewBox="0 0 50 50" fill="none" xmlns="http://www.w3.org/2000/svg">
<path opacity="0.987" fill-rule="evenodd" clip-rule="evenodd" d="M22.0515 0.217056C24.7343 -0.0723519 26.3218 -0.0723519 29.2043 0.217056C34.3069 0.946274 39.037 3.22363 42.7106 6.7198C40.2281 8.98552 37.7783 11.2843 35.3617 13.6156C30.7338 9.82825 25.5681 8.95407 19.8646 10.993C15.6808 12.851 12.7674 15.8617 11.1244 20.0254C8.43957 18.0954 5.78972 16.1205 3.17604 14.1015C2.9944 14.0092 2.78694 13.9754 2.58398 14.005C6.73578 6.27556 13.2237 1.67839 22.0478 0.213483" fill="#F44336"/>
<path opacity="0.997" fill-rule="evenodd" clip-rule="evenodd" d="M2.57638 14.005C2.78607 13.9741 2.98465 14.0062 3.17214 14.1015C5.78582 16.1205 8.43567 18.0954 11.1205 20.0254C10.698 21.6478 10.4317 23.3043 10.3249 24.974C10.4162 26.5889 10.6814 28.1741 11.1205 29.7295L2.7762 36.1429C-0.857549 28.8113 -0.924156 21.432 2.57638 14.005Z" fill="#FFC107"/>
<path opacity="0.999" fill-rule="evenodd" clip-rule="evenodd" d="M42.3144 43.9105C39.7162 41.6981 36.9962 39.6228 34.1662 37.6936C37.0032 35.7595 38.7251 33.106 39.3319 29.7331H25.4297V20.4113C33.4471 20.347 41.4609 20.4125 49.4709 20.6079C50.9905 28.5755 49.2353 35.7595 44.2053 42.1598C43.6072 42.7737 42.9736 43.358 42.3144 43.9105Z" fill="#448AFF"/>
<path opacity="0.993" fill-rule="evenodd" clip-rule="evenodd" d="M11.1207 29.7332C14.155 37.0148 19.7178 40.4138 27.8093 39.9303C30.0807 39.6764 32.2584 38.9102 34.1665 37.6937C36.9985 39.6278 39.7145 41.7001 42.3147 43.9106C38.1949 47.4851 32.9421 49.6061 27.4133 49.9274C26.1572 50.0243 24.8951 50.0243 23.639 49.9274C14.2203 48.8555 7.26613 44.2607 2.77637 36.143L11.1207 29.7332Z" fill="#43A047"/>
</svg>
