<svg width="58" height="58" viewBox="0 0 58 58" fill="none" xmlns="http://www.w3.org/2000/svg">
<path d="M31.4165 7.25C25.648 7.25 20.1158 9.54151 16.0369 13.6204C11.958 17.6993 9.6665 23.2315 9.6665 29H2.4165L11.8173 38.4008L11.9865 38.7392L21.7498 29H14.4998C14.4998 19.6475 22.064 12.0833 31.4165 12.0833C40.769 12.0833 48.3332 19.6475 48.3332 29C48.3332 38.3525 40.769 45.9167 31.4165 45.9167C26.7523 45.9167 22.5232 44.0075 19.4782 40.9383L16.0465 44.37C18.0603 46.3956 20.4553 48.0023 23.0933 49.0974C25.7314 50.1924 28.5602 50.7541 31.4165 50.75C37.185 50.75 42.7172 48.4585 46.7961 44.3796C50.875 40.3007 53.1665 34.7685 53.1665 29C53.1665 23.2315 50.875 17.6993 46.7961 13.6204C42.7172 9.54151 37.185 7.25 31.4165 7.25ZM28.9998 19.3333V31.4167L39.2707 37.5067L41.1315 34.4133L32.6248 29.3625V19.3333H28.9998Z" fill="#3E473D"/>
</svg>
