<svg width="61" height="61" viewBox="0 0 61 61" fill="none" xmlns="http://www.w3.org/2000/svg">
<path d="M10.1665 48.2918V25.4168C10.1665 24.612 10.347 23.8495 10.7079 23.1293C11.0688 22.4092 11.5661 21.8161 12.1998 21.3502L27.4498 9.91266C28.3394 9.23489 29.3561 8.896 30.4998 8.896C31.6436 8.896 32.6603 9.23489 33.5498 9.91266L48.7998 21.3502C49.4353 21.8161 49.9334 22.4092 50.2943 23.1293C50.6553 23.8495 50.8349 24.612 50.8332 25.4168V48.2918C50.8332 49.6897 50.335 50.8869 49.3387 51.8832C48.3423 52.8795 47.1461 53.3769 45.7498 53.3752H38.1248C37.4047 53.3752 36.8015 53.1312 36.3152 52.6432C35.8289 52.1552 35.5849 51.5519 35.5832 50.8335V38.1252C35.5832 37.405 35.3392 36.8018 34.8512 36.3155C34.3632 35.8292 33.7599 35.5852 33.0415 35.5835H27.9582C27.238 35.5835 26.6348 35.8275 26.1485 36.3155C25.6622 36.8035 25.4182 37.4067 25.4165 38.1252V50.8335C25.4165 51.5536 25.1725 52.1577 24.6845 52.6457C24.1965 53.1337 23.5933 53.3769 22.8748 53.3752H15.2498C13.8519 53.3752 12.6556 52.8778 11.661 51.8832C10.6664 50.8886 10.1682 49.6914 10.1665 48.2918Z" fill="#61B061"/>
</svg>
