<svg width="31" height="30" viewBox="0 0 31 30" fill="none" xmlns="http://www.w3.org/2000/svg">
<path d="M27.125 23.75V6.25C27.125 4.875 25.9625 3.75 24.5417 3.75H6.45833C5.0375 3.75 3.875 4.875 3.875 6.25V23.75C3.875 25.125 5.0375 26.25 6.45833 26.25H24.5417C25.9625 26.25 27.125 25.125 27.125 23.75ZM11.4958 17.475L14.2083 20.6375L18.2125 15.65C18.4708 15.325 18.9875 15.325 19.2458 15.6625L23.7796 21.5125C23.8515 21.6054 23.8954 21.7158 23.9061 21.8314C23.9169 21.947 23.8942 22.0632 23.8406 22.167C23.7869 22.2708 23.7045 22.3581 23.6025 22.4192C23.5004 22.4802 23.3829 22.5125 23.2629 22.5125H7.77583C7.23333 22.5125 6.93625 21.9125 7.27208 21.5L10.4883 17.5C10.7337 17.175 11.2246 17.1625 11.4958 17.475Z" fill="#61B061"/>
</svg>
