<svg width="39" height="39" viewBox="0 0 39 39" fill="none" xmlns="http://www.w3.org/2000/svg">
<path d="M16.4369 35.4429C17.4216 36.2554 18.4486 36.998 19.5 37.7228C20.5536 37.0076 21.5757 36.2469 22.5631 35.4429C24.2093 34.0912 25.7584 32.6257 27.1993 31.057C30.5208 27.4251 34.125 22.1601 34.125 16.25C34.125 14.3294 33.7467 12.4276 33.0117 10.6533C32.2768 8.87887 31.1995 7.26662 29.8414 5.90856C28.4834 4.55051 26.8711 3.47324 25.0967 2.73826C23.3224 2.00329 21.4206 1.625 19.5 1.625C17.5794 1.625 15.6776 2.00329 13.9033 2.73826C12.1289 3.47324 10.5166 4.55051 9.15856 5.90856C7.80051 7.26662 6.72324 8.87887 5.98826 10.6533C5.25329 12.4276 4.875 14.3294 4.875 16.25C4.875 22.1601 8.47925 27.4235 11.8008 31.057C13.2415 32.6262 14.7907 34.0907 16.4369 35.4429ZM19.5 21.5312C18.0993 21.5312 16.756 20.9748 15.7656 19.9844C14.7752 18.994 14.2188 17.6507 14.2188 16.25C14.2188 14.8493 14.7752 13.506 15.7656 12.5156C16.756 11.5252 18.0993 10.9688 19.5 10.9688C20.9007 10.9688 22.244 11.5252 23.2344 12.5156C24.2248 13.506 24.7812 14.8493 24.7812 16.25C24.7812 17.6507 24.2248 18.994 23.2344 19.9844C22.244 20.9748 20.9007 21.5312 19.5 21.5312Z" fill="#61B061"/>
</svg>
