<svg width="53" height="53" viewBox="0 0 53 53" fill="none" xmlns="http://www.w3.org/2000/svg">
<path d="M44.2219 53H8.77813C5.76375 53 3.3125 50.5488 3.3125 47.5344V22.0281C3.3125 19.0138 5.76375 16.5625 8.77813 16.5625H44.2219C47.2363 16.5625 49.6875 19.0138 49.6875 22.0281V47.5013C49.6875 50.5156 47.2363 52.9669 44.2219 52.9669V53ZM8.77813 19.875C7.58563 19.875 6.625 20.8356 6.625 22.0281V47.5013C6.625 48.6938 7.58563 49.6544 8.77813 49.6544H44.2219C45.4144 49.6544 46.375 48.6938 46.375 47.5013V22.0281C46.375 20.8356 45.4144 19.875 44.2219 19.875H8.77813Z" fill="#61B061"/>
<path d="M41.5389 19.875H11.4614V15.0387C11.4614 6.7575 18.2189 0 26.5002 0C34.7814 0 41.5389 6.7575 41.5389 15.0387V19.875ZM14.7739 16.5625H38.2264V15.0387C38.2264 8.57937 32.9596 3.3125 26.5002 3.3125C20.0408 3.3125 14.7739 8.57937 14.7739 15.0387V16.5625Z" fill="#61B061"/>
<path d="M39.75 38.0938C41.5794 38.0938 43.0625 36.6107 43.0625 34.7812C43.0625 32.9518 41.5794 31.4688 39.75 31.4688C37.9206 31.4688 36.4375 32.9518 36.4375 34.7812C36.4375 36.6107 37.9206 38.0938 39.75 38.0938Z" fill="#61B061"/>
<path d="M26.5 38.0938C28.3294 38.0938 29.8125 36.6107 29.8125 34.7812C29.8125 32.9518 28.3294 31.4688 26.5 31.4688C24.6706 31.4688 23.1875 32.9518 23.1875 34.7812C23.1875 36.6107 24.6706 38.0938 26.5 38.0938Z" fill="#61B061"/>
<path d="M13.25 38.0938C15.0794 38.0938 16.5625 36.6107 16.5625 34.7812C16.5625 32.9518 15.0794 31.4688 13.25 31.4688C11.4206 31.4688 9.9375 32.9518 9.9375 34.7812C9.9375 36.6107 11.4206 38.0938 13.25 38.0938Z" fill="#61B061"/>
</svg>
