<svg width="55" height="55" viewBox="0 0 55 55" fill="none" xmlns="http://www.w3.org/2000/svg">
<path d="M4.5835 27.4999C4.5835 14.843 14.8433 4.58325 27.5002 4.58325C40.157 4.58325 50.4168 14.843 50.4168 27.4999C50.4168 40.1568 40.157 50.4166 27.5002 50.4166C14.8433 50.4166 4.5835 40.1568 4.5835 27.4999Z" stroke="black" stroke-width="2" stroke-linecap="square"/>
<path d="M27.5003 13.75C25.0692 13.75 22.7376 14.7158 21.0185 16.4349C19.2994 18.1539 18.3337 20.4855 18.3337 22.9167V28.6458L16.042 33.2292V36.6667H25.2087C25.2087 37.2745 25.4501 37.8574 25.8799 38.2871C26.3096 38.7169 26.8925 38.9583 27.5003 38.9583C28.1081 38.9583 28.691 38.7169 29.1208 38.2871C29.5505 37.8574 29.792 37.2745 29.792 36.6667H38.9587V33.2292L36.667 28.6458V22.9167C36.667 20.4855 35.7012 18.1539 33.9821 16.4349C32.2631 14.7158 29.9315 13.75 27.5003 13.75Z" stroke="black" stroke-width="2" stroke-linecap="square"/>
</svg>
