<svg width="58" height="58" viewBox="0 0 58 58" fill="none" xmlns="http://www.w3.org/2000/svg">
<path fill-rule="evenodd" clip-rule="evenodd" d="M19.3333 16.9167C19.3333 14.3529 20.3518 11.8942 22.1646 10.0813C23.9775 8.26845 26.4362 7.25 29 7.25C31.5638 7.25 34.0225 8.26845 35.8354 10.0813C37.6482 11.8942 38.6667 14.3529 38.6667 16.9167C38.6667 19.4804 37.6482 21.9392 35.8354 23.752C34.0225 25.5649 31.5638 26.5833 29 26.5833C26.4362 26.5833 23.9775 25.5649 22.1646 23.752C20.3518 21.9392 19.3333 19.4804 19.3333 16.9167ZM19.3333 31.4167C16.1286 31.4167 13.0552 32.6897 10.7891 34.9558C8.52306 37.2219 7.25 40.2953 7.25 43.5C7.25 45.4228 8.01384 47.2669 9.37348 48.6265C10.7331 49.9862 12.5772 50.75 14.5 50.75H43.5C45.4228 50.75 47.2669 49.9862 48.6265 48.6265C49.9862 47.2669 50.75 45.4228 50.75 43.5C50.75 40.2953 49.4769 37.2219 47.2109 34.9558C44.9448 32.6897 41.8714 31.4167 38.6667 31.4167H19.3333Z" fill="#3E473D"/>
</svg>
