<svg width="80" height="80" viewBox="0 0 80 80" fill="none" xmlns="http://www.w3.org/2000/svg">
<path d="M15 40C15 33.3696 17.6339 27.0107 22.3223 22.3223C27.0107 17.6339 33.3696 15 40 15C46.6304 15 52.9893 17.6339 57.6777 22.3223C62.3661 27.0107 65 33.3696 65 40C65 46.6304 62.3661 52.9893 57.6777 57.6777C52.9893 62.3661 46.6304 65 40 65C33.3696 65 27.0107 62.3661 22.3223 57.6777C17.6339 52.9893 15 46.6304 15 40ZM40 18.3333C34.2536 18.3333 28.7426 20.6161 24.6794 24.6794C20.6161 28.7426 18.3333 34.2536 18.3333 40C18.3333 45.7464 20.6161 51.2574 24.6794 55.3206C28.7426 59.3839 34.2536 61.6667 40 61.6667C45.7464 61.6667 51.2574 59.3839 55.3206 55.3206C59.3839 51.2574 61.6667 45.7464 61.6667 40C61.6667 34.2536 59.3839 28.7426 55.3206 24.6794C51.2574 20.6161 45.7464 18.3333 40 18.3333Z" fill="black"/>
<path fill-rule="evenodd" clip-rule="evenodd" d="M32 33.125C32 31.1359 32.7902 29.2282 34.1967 27.8217C35.6032 26.4152 37.5109 25.625 39.5 25.625C41.4891 25.625 43.3968 26.4152 44.8033 27.8217C46.2098 29.2282 47 31.1359 47 33.125C47 35.1141 46.2098 37.0218 44.8033 38.4283C43.3968 39.8348 41.4891 40.625 39.5 40.625C37.5109 40.625 35.6032 39.8348 34.1967 38.4283C32.7902 37.0218 32 35.1141 32 33.125ZM32 44.375C29.5136 44.375 27.129 45.3627 25.3709 47.1209C23.6127 48.879 22.625 51.2636 22.625 53.75C22.625 55.2418 23.2176 56.6726 24.2725 57.7275C25.3274 58.7824 26.7582 59.375 28.25 59.375H50.75C52.2418 59.375 53.6726 58.7824 54.7275 57.7275C55.7824 56.6726 56.375 55.2418 56.375 53.75C56.375 51.2636 55.3873 48.879 53.6291 47.1209C51.871 45.3627 49.4864 44.375 47 44.375H32Z" fill="black"/>
</svg>
