<svg width="72" height="68" viewBox="0 0 72 68" fill="none" xmlns="http://www.w3.org/2000/svg">
<rect width="72" height="68" rx="34" fill="#61B061" fill-opacity="0.25"/>
<path d="M47.926 48.0173C49.161 48.6348 50.5302 47.4601 50.1081 46.145L47.1369 36.9103C47.0785 36.7287 46.9713 36.5668 46.827 36.4421C46.6827 36.3174 46.5069 36.2348 46.3188 36.2034L33.9798 34.146C33.4008 34.0493 33.4008 33.2176 33.9798 33.121L46.3177 31.0646C46.506 31.0334 46.6821 30.9509 46.8266 30.8262C46.9711 30.7015 47.0784 30.5394 47.1369 30.3577L50.1081 21.1199C50.5312 19.8048 49.1621 18.6301 47.926 19.2476L21.9424 32.2373C20.7926 32.8122 20.7926 34.4516 21.9424 35.0276L47.926 48.0173Z" fill="#61B061"/>
</svg>
