<svg width="22" height="22" viewBox="0 0 22 22" fill="none" xmlns="http://www.w3.org/2000/svg">
<path d="M11.6963 1.24266L14.0097 6.51922C14.0968 6.71777 14.2355 6.88932 14.4115 7.01599C14.5874 7.14266 14.7941 7.2198 15.0101 7.23937L20.6458 7.74469C21.2835 7.8375 21.5379 8.61953 21.0755 9.06984L16.8302 12.6362C16.4865 12.925 16.3301 13.3787 16.4246 13.817L17.6586 19.5937C17.7669 20.228 17.1018 20.7127 16.5311 20.4119L11.6121 17.5312C11.4266 17.4223 11.2153 17.3649 11.0002 17.3649C10.7851 17.3649 10.5738 17.4223 10.3883 17.5312L5.46927 20.4102C4.90037 20.7092 4.23349 20.2262 4.34177 19.592L5.57584 13.8153C5.66865 13.377 5.51396 12.9233 5.17021 12.6345L0.923179 9.07156C0.462554 8.62297 0.716929 7.83922 1.35287 7.74641L6.98865 7.24109C7.20456 7.22152 7.41127 7.14438 7.58721 7.01771C7.76316 6.89104 7.9019 6.71948 7.98896 6.52094L10.3024 1.24438C10.5894 0.666875 11.411 0.666875 11.6963 1.24266Z" fill="#FDD835"/>
<path d="M11.5275 6.83549L11.1356 2.94768C11.1202 2.73111 11.0755 2.35986 11.4227 2.35986C11.6977 2.35986 11.8472 2.93221 11.8472 2.93221L13.0228 6.05346C13.4663 7.24111 13.2841 7.64846 12.8561 7.88908C12.3645 8.16408 11.6392 7.94924 11.5275 6.83549Z" fill="#FFFF8D"/>
<path d="M16.3763 12.2908L19.7485 9.6594C19.9152 9.52018 20.216 9.29847 19.9754 9.04581C19.7846 8.84643 19.269 9.13347 19.269 9.13347L16.3179 10.2867C15.4379 10.591 14.8535 11.0413 14.8019 11.6085C14.7349 12.3647 15.4138 12.9474 16.3763 12.2908Z" fill="#F4B400"/>
</svg>
